<mxfile host="Electron" modified="2024-02-22T12:48:52.234Z" agent="Mozilla/5.0 (Windows NT 10.0; Win64; x64) AppleWebKit/537.36 (KHTML, like Gecko) draw.io/21.1.2 Chrome/106.0.5249.199 Electron/21.4.3 Safari/537.36" etag="Dy3LR-Mrm0tTrK-aDPal" version="21.1.2" type="device">
  <diagram id="T2bUoUQqVmPRmcGY1Nx-" name="Stránka-1">
    <mxGraphModel dx="1418" dy="828" grid="1" gridSize="10" guides="1" tooltips="1" connect="1" arrows="1" fold="1" page="1" pageScale="1" pageWidth="827" pageHeight="1169" math="0" shadow="0">
      <root>
        <mxCell id="0" />
        <mxCell id="1" parent="0" />
        <mxCell id="VHjTcZcONXBP2_JxpRjd-1" value="&lt;font style=&quot;font-size: 24px;&quot;&gt;Skupina&lt;/font&gt;" style="text;html=1;strokeColor=none;fillColor=none;align=center;verticalAlign=middle;whiteSpace=wrap;rounded=0;" parent="1" vertex="1">
          <mxGeometry x="740" y="10" width="60" height="30" as="geometry" />
        </mxCell>
        <mxCell id="VHjTcZcONXBP2_JxpRjd-2" value="&lt;font style=&quot;font-size: 14px;&quot;&gt;Člen&lt;/font&gt;" style="shape=umlActor;verticalLabelPosition=bottom;verticalAlign=top;html=1;outlineConnect=0;fontSize=24;" parent="1" vertex="1">
          <mxGeometry x="40" y="40" width="60" height="120" as="geometry" />
        </mxCell>
        <mxCell id="VHjTcZcONXBP2_JxpRjd-5" value="&lt;font style=&quot;font-size: 14px;&quot;&gt;Majitel skupiny&lt;br&gt;&lt;/font&gt;" style="shape=umlActor;verticalLabelPosition=bottom;verticalAlign=top;html=1;outlineConnect=0;fontSize=24;" parent="1" vertex="1">
          <mxGeometry x="40" y="585" width="60" height="120" as="geometry" />
        </mxCell>
        <mxCell id="VHjTcZcONXBP2_JxpRjd-6" value="Vytořit úkol" style="ellipse;whiteSpace=wrap;html=1;fontSize=14;" parent="1" vertex="1">
          <mxGeometry x="180" y="260" width="120" height="40" as="geometry" />
        </mxCell>
        <mxCell id="VHjTcZcONXBP2_JxpRjd-7" value="Smazat úkol" style="ellipse;whiteSpace=wrap;html=1;fontSize=14;" parent="1" vertex="1">
          <mxGeometry x="180" y="310" width="120" height="40" as="geometry" />
        </mxCell>
        <mxCell id="VHjTcZcONXBP2_JxpRjd-8" value="Upravit úkol" style="ellipse;whiteSpace=wrap;html=1;fontSize=14;" parent="1" vertex="1">
          <mxGeometry x="180" y="360" width="120" height="40" as="geometry" />
        </mxCell>
        <mxCell id="VHjTcZcONXBP2_JxpRjd-9" value="" style="endArrow=classic;html=1;rounded=0;fontSize=14;exitX=0;exitY=0.3333333333333333;exitDx=0;exitDy=0;exitPerimeter=0;entryX=0;entryY=1;entryDx=0;entryDy=0;entryPerimeter=0;" parent="1" source="VHjTcZcONXBP2_JxpRjd-5" target="VHjTcZcONXBP2_JxpRjd-2" edge="1">
          <mxGeometry width="50" height="50" relative="1" as="geometry">
            <mxPoint x="430" y="300" as="sourcePoint" />
            <mxPoint x="480" y="250" as="targetPoint" />
          </mxGeometry>
        </mxCell>
        <mxCell id="VHjTcZcONXBP2_JxpRjd-11" value="Smazat cizí úkol" style="ellipse;whiteSpace=wrap;html=1;fontSize=14;" parent="1" vertex="1">
          <mxGeometry x="175" y="460" width="120" height="40" as="geometry" />
        </mxCell>
        <mxCell id="VHjTcZcONXBP2_JxpRjd-12" value="Upravit cizí úkol" style="ellipse;whiteSpace=wrap;html=1;fontSize=14;" parent="1" vertex="1">
          <mxGeometry x="175" y="510" width="120" height="40" as="geometry" />
        </mxCell>
        <mxCell id="VHjTcZcONXBP2_JxpRjd-13" value="Vytvořit kategorii" style="ellipse;whiteSpace=wrap;html=1;fontSize=14;" parent="1" vertex="1">
          <mxGeometry x="320" y="260" width="120" height="40" as="geometry" />
        </mxCell>
        <mxCell id="VHjTcZcONXBP2_JxpRjd-14" value="Upravit kategorii" style="ellipse;whiteSpace=wrap;html=1;fontSize=14;" parent="1" vertex="1">
          <mxGeometry x="320" y="360" width="120" height="40" as="geometry" />
        </mxCell>
        <mxCell id="VHjTcZcONXBP2_JxpRjd-15" value="Smazat kategorii" style="ellipse;whiteSpace=wrap;html=1;fontSize=14;" parent="1" vertex="1">
          <mxGeometry x="320" y="310" width="120" height="40" as="geometry" />
        </mxCell>
        <mxCell id="VHjTcZcONXBP2_JxpRjd-16" value="" style="rounded=0;whiteSpace=wrap;html=1;fontSize=14;fillColor=none;" parent="1" vertex="1">
          <mxGeometry x="170" y="190" width="280" height="220" as="geometry" />
        </mxCell>
        <mxCell id="VHjTcZcONXBP2_JxpRjd-18" value="Přiřadit se k úkolu" style="ellipse;whiteSpace=wrap;html=1;fontSize=14;" parent="1" vertex="1">
          <mxGeometry x="180" y="30" width="120" height="40" as="geometry" />
        </mxCell>
        <mxCell id="VHjTcZcONXBP2_JxpRjd-19" value="Dokončit úkol" style="ellipse;whiteSpace=wrap;html=1;fontSize=14;" parent="1" vertex="1">
          <mxGeometry x="180" y="80" width="120" height="40" as="geometry" />
        </mxCell>
        <mxCell id="VHjTcZcONXBP2_JxpRjd-20" value="Pouze pokud je majitelem daného záznamu" style="text;html=1;strokeColor=none;fillColor=none;align=center;verticalAlign=middle;whiteSpace=wrap;rounded=0;fontSize=14;" parent="1" vertex="1">
          <mxGeometry x="170" y="410" width="280" height="30" as="geometry" />
        </mxCell>
        <mxCell id="VHjTcZcONXBP2_JxpRjd-21" value="" style="endArrow=classic;html=1;rounded=0;fontSize=14;entryX=0;entryY=0;entryDx=0;entryDy=0;exitX=0.5;exitY=0.5;exitDx=0;exitDy=0;exitPerimeter=0;" parent="1" source="VHjTcZcONXBP2_JxpRjd-2" target="VHjTcZcONXBP2_JxpRjd-16" edge="1">
          <mxGeometry width="50" height="50" relative="1" as="geometry">
            <mxPoint x="440" y="100" as="sourcePoint" />
            <mxPoint x="490" y="50" as="targetPoint" />
          </mxGeometry>
        </mxCell>
        <mxCell id="VHjTcZcONXBP2_JxpRjd-22" value="" style="endArrow=classic;html=1;rounded=0;fontSize=14;entryX=0;entryY=0.5;entryDx=0;entryDy=0;exitX=0.5;exitY=0.5;exitDx=0;exitDy=0;exitPerimeter=0;" parent="1" source="VHjTcZcONXBP2_JxpRjd-2" target="VHjTcZcONXBP2_JxpRjd-19" edge="1">
          <mxGeometry width="50" height="50" relative="1" as="geometry">
            <mxPoint x="100" y="110" as="sourcePoint" />
            <mxPoint x="490" y="50" as="targetPoint" />
          </mxGeometry>
        </mxCell>
        <mxCell id="VHjTcZcONXBP2_JxpRjd-23" value="" style="endArrow=classic;html=1;rounded=0;fontSize=14;entryX=0;entryY=0.5;entryDx=0;entryDy=0;exitX=0.5;exitY=0.5;exitDx=0;exitDy=0;exitPerimeter=0;" parent="1" source="VHjTcZcONXBP2_JxpRjd-2" target="VHjTcZcONXBP2_JxpRjd-18" edge="1">
          <mxGeometry width="50" height="50" relative="1" as="geometry">
            <mxPoint x="130" y="90" as="sourcePoint" />
            <mxPoint x="180" y="40" as="targetPoint" />
          </mxGeometry>
        </mxCell>
        <mxCell id="VHjTcZcONXBP2_JxpRjd-24" value="Upravit cizí kategorii" style="ellipse;whiteSpace=wrap;html=1;fontSize=14;" parent="1" vertex="1">
          <mxGeometry x="175" y="620" width="120" height="40" as="geometry" />
        </mxCell>
        <mxCell id="VHjTcZcONXBP2_JxpRjd-25" value="Smazat cizí kategorii" style="ellipse;whiteSpace=wrap;html=1;fontSize=14;" parent="1" vertex="1">
          <mxGeometry x="175" y="674.5" width="120" height="40" as="geometry" />
        </mxCell>
        <mxCell id="VHjTcZcONXBP2_JxpRjd-26" value="Upravit vlastnosti skupiny" style="ellipse;whiteSpace=wrap;html=1;fontSize=14;" parent="1" vertex="1">
          <mxGeometry x="175" y="730" width="140" height="40" as="geometry" />
        </mxCell>
        <mxCell id="VHjTcZcONXBP2_JxpRjd-27" value="Upravit členství" style="ellipse;whiteSpace=wrap;html=1;fontSize=14;" parent="1" vertex="1">
          <mxGeometry x="175" y="780" width="140" height="40" as="geometry" />
        </mxCell>
        <mxCell id="VHjTcZcONXBP2_JxpRjd-28" value="" style="endArrow=classic;html=1;rounded=0;fontSize=14;exitX=0.5;exitY=0.5;exitDx=0;exitDy=0;exitPerimeter=0;entryX=0;entryY=0.5;entryDx=0;entryDy=0;" parent="1" source="VHjTcZcONXBP2_JxpRjd-5" target="VHjTcZcONXBP2_JxpRjd-11" edge="1">
          <mxGeometry width="50" height="50" relative="1" as="geometry">
            <mxPoint x="435" y="570" as="sourcePoint" />
            <mxPoint x="485" y="520" as="targetPoint" />
          </mxGeometry>
        </mxCell>
        <mxCell id="VHjTcZcONXBP2_JxpRjd-29" value="" style="endArrow=classic;html=1;rounded=0;fontSize=14;exitX=0.5;exitY=0.5;exitDx=0;exitDy=0;exitPerimeter=0;entryX=0;entryY=0.5;entryDx=0;entryDy=0;" parent="1" source="VHjTcZcONXBP2_JxpRjd-5" target="VHjTcZcONXBP2_JxpRjd-12" edge="1">
          <mxGeometry width="50" height="50" relative="1" as="geometry">
            <mxPoint x="75" y="530" as="sourcePoint" />
            <mxPoint x="185" y="490" as="targetPoint" />
          </mxGeometry>
        </mxCell>
        <mxCell id="VHjTcZcONXBP2_JxpRjd-30" value="" style="endArrow=classic;html=1;rounded=0;fontSize=14;exitX=0.5;exitY=0.5;exitDx=0;exitDy=0;exitPerimeter=0;entryX=0;entryY=0.5;entryDx=0;entryDy=0;" parent="1" source="VHjTcZcONXBP2_JxpRjd-5" target="VHjTcZcONXBP2_JxpRjd-24" edge="1">
          <mxGeometry width="50" height="50" relative="1" as="geometry">
            <mxPoint x="75" y="530" as="sourcePoint" />
            <mxPoint x="185" y="540" as="targetPoint" />
          </mxGeometry>
        </mxCell>
        <mxCell id="VHjTcZcONXBP2_JxpRjd-31" value="" style="endArrow=classic;html=1;rounded=0;fontSize=14;exitX=0.5;exitY=0.5;exitDx=0;exitDy=0;exitPerimeter=0;entryX=0;entryY=0.5;entryDx=0;entryDy=0;" parent="1" source="VHjTcZcONXBP2_JxpRjd-5" target="VHjTcZcONXBP2_JxpRjd-25" edge="1">
          <mxGeometry width="50" height="50" relative="1" as="geometry">
            <mxPoint x="85" y="540" as="sourcePoint" />
            <mxPoint x="195" y="550" as="targetPoint" />
          </mxGeometry>
        </mxCell>
        <mxCell id="VHjTcZcONXBP2_JxpRjd-32" value="" style="endArrow=classic;html=1;rounded=0;fontSize=14;exitX=0.5;exitY=0.5;exitDx=0;exitDy=0;exitPerimeter=0;entryX=0;entryY=0.5;entryDx=0;entryDy=0;" parent="1" source="VHjTcZcONXBP2_JxpRjd-5" target="VHjTcZcONXBP2_JxpRjd-26" edge="1">
          <mxGeometry width="50" height="50" relative="1" as="geometry">
            <mxPoint x="95" y="550" as="sourcePoint" />
            <mxPoint x="205" y="560" as="targetPoint" />
          </mxGeometry>
        </mxCell>
        <mxCell id="VHjTcZcONXBP2_JxpRjd-33" value="" style="endArrow=classic;html=1;rounded=0;fontSize=14;exitX=0.5;exitY=0.5;exitDx=0;exitDy=0;exitPerimeter=0;entryX=0;entryY=0.5;entryDx=0;entryDy=0;" parent="1" source="VHjTcZcONXBP2_JxpRjd-5" target="VHjTcZcONXBP2_JxpRjd-27" edge="1">
          <mxGeometry width="50" height="50" relative="1" as="geometry">
            <mxPoint x="105" y="560" as="sourcePoint" />
            <mxPoint x="215" y="570" as="targetPoint" />
          </mxGeometry>
        </mxCell>
        <mxCell id="Sfws6PHzFNzsjhZruROL-2" value="Opustit skupinu" style="ellipse;whiteSpace=wrap;html=1;fontSize=14;" parent="1" vertex="1">
          <mxGeometry x="180" y="130" width="120" height="40" as="geometry" />
        </mxCell>
        <mxCell id="Sfws6PHzFNzsjhZruROL-3" value="" style="endArrow=classic;html=1;rounded=0;exitX=0.5;exitY=0.5;exitDx=0;exitDy=0;exitPerimeter=0;entryX=0;entryY=0.5;entryDx=0;entryDy=0;" parent="1" source="VHjTcZcONXBP2_JxpRjd-2" target="Sfws6PHzFNzsjhZruROL-2" edge="1">
          <mxGeometry width="50" height="50" relative="1" as="geometry">
            <mxPoint x="350" y="180" as="sourcePoint" />
            <mxPoint x="400" y="130" as="targetPoint" />
          </mxGeometry>
        </mxCell>
        <mxCell id="whCST_gnLev8J7aJDhZ3-1" value="Potvrdit úkol jako hotový" style="ellipse;whiteSpace=wrap;html=1;fontSize=14;" parent="1" vertex="1">
          <mxGeometry x="180" y="200" width="150" height="40" as="geometry" />
        </mxCell>
        <mxCell id="whCST_gnLev8J7aJDhZ3-3" value="Potvrdt cizí úkol jako hotový" style="ellipse;whiteSpace=wrap;html=1;fontSize=14;" parent="1" vertex="1">
          <mxGeometry x="175" y="565" width="190" height="40" as="geometry" />
        </mxCell>
        <mxCell id="whCST_gnLev8J7aJDhZ3-5" value="" style="endArrow=classic;html=1;rounded=0;fontSize=14;exitX=0.5;exitY=0.5;exitDx=0;exitDy=0;exitPerimeter=0;entryX=0;entryY=0.5;entryDx=0;entryDy=0;" parent="1" source="VHjTcZcONXBP2_JxpRjd-5" target="whCST_gnLev8J7aJDhZ3-3" edge="1">
          <mxGeometry width="50" height="50" relative="1" as="geometry">
            <mxPoint x="75" y="530" as="sourcePoint" />
            <mxPoint x="185" y="540" as="targetPoint" />
          </mxGeometry>
        </mxCell>
      </root>
    </mxGraphModel>
  </diagram>
</mxfile>
